<svg version="1.1" id="Layer_1" xmlns="http://www.w3.org/2000/svg" xmlns:xlink="http://www.w3.org/1999/xlink" x="0px" y="0px"
	 width="100%" viewBox="150 415 730 190" xml:space="preserve">
<path fill="#0E2F68" opacity="1.000000" stroke="none" 
	d="
M770.805786,578.750366 
	C767.271912,582.778992 763.962036,586.524109 759.602417,589.140076 
	C756.255066,591.148621 752.719727,592.380554 748.744019,592.338745 
	C741.643677,592.264099 737.560486,588.697449 736.666199,581.706848 
	C735.589844,573.293335 737.744690,565.178101 738.883972,556.969910 
	C739.430847,553.029480 740.071838,549.102173 740.886353,543.748230 
	C735.931152,553.077942 731.623535,561.199036 726.180664,568.630737 
	C720.518738,576.361694 714.019043,583.194580 705.675537,588.089050 
	C704.815063,588.593811 703.934631,589.082458 703.017456,589.469666 
	C695.388428,592.689575 687.394836,594.749512 680.222900,589.318665 
	C672.615967,583.558350 672.573608,574.735840 674.210999,566.421143 
	C678.543091,544.422058 683.456177,522.537598 688.078491,500.595001 
	C688.762024,497.350128 689.213501,494.047882 689.597595,490.751801 
	C689.814941,488.887207 689.501160,486.975708 687.641235,485.957123 
	C685.675110,484.880432 684.105896,486.104492 682.689209,487.272003 
	C678.779297,490.494324 675.969238,494.634399 673.260864,498.845642 
	C672.057434,500.716797 670.924316,502.788330 668.213379,500.998413 
	C665.712463,499.347107 667.138306,497.435547 668.149902,495.807953 
	C673.354126,487.434631 678.669128,479.030365 687.800354,474.361664 
	C700.831482,467.698914 710.534119,473.859955 710.129578,488.580566 
	C709.895813,497.087097 707.454407,505.299530 705.752808,513.601807 
	C702.383606,530.040283 697.371399,546.119080 694.891113,562.744629 
	C694.148376,567.723328 692.211121,573.643005 697.979675,576.724365 
	C703.269531,579.549927 708.023071,576.119934 712.017578,572.847290 
	C724.748779,562.416809 732.216248,548.314270 738.841003,533.639221 
	C746.799805,516.008911 749.918152,497.099823 753.537048,478.336334 
	C754.278381,474.492859 755.802490,472.773254 759.739746,472.984589 
	C763.227051,473.171783 766.738098,473.107056 770.230469,472.960236 
	C774.045715,472.799866 775.651306,473.739746 774.729065,478.158783 
	C770.622986,497.833527 766.847656,517.577209 762.945007,537.294434 
	C760.848206,547.888062 758.618530,558.457458 756.706116,569.084106 
	C756.177246,572.023193 754.665161,576.129639 758.126953,577.700745 
	C761.287903,579.135315 763.765991,575.738892 766.027100,573.630249 
	C769.927612,569.992676 772.115356,565.008301 775.248962,560.894348 
	C779.189087,561.931702 780.298462,563.593567 778.260864,567.107239 
	C776.001831,571.002808 773.772461,574.894104 770.805786,578.750366 
z"/>
<path fill="#0E2F68" opacity="1.000000" stroke="none" 
	d="
M227.479309,442.541229 
	C228.952332,438.058411 230.394882,433.976013 231.618011,429.828888 
	C232.405655,427.158386 233.546906,425.561096 236.751038,425.570129 
	C239.999146,425.579315 241.810242,426.465515 243.068069,429.723267 
	C256.972992,465.736572 270.999268,501.703247 285.086243,537.645874 
	C289.639526,549.263428 294.441071,560.784119 299.179901,572.328308 
	C301.761169,578.616394 305.936371,583.383118 312.554932,585.612976 
	C313.881165,586.059814 315.199707,586.374939 315.085266,588.125732 
	C314.942902,590.303894 313.194672,590.190796 311.747253,590.196045 
	C296.588348,590.250671 281.429260,590.269714 266.270233,590.254456 
	C264.821167,590.252991 263.016724,590.365234 263.012970,588.151367 
	C263.010101,586.447388 264.435913,586.187256 265.748962,585.790100 
	C274.075775,583.270874 276.232819,579.876343 273.457550,571.833557 
	C269.497223,560.356323 264.910706,549.096436 260.711914,537.699341 
	C259.741394,535.065002 258.132202,534.251953 255.436523,534.265869 
	C238.611786,534.352844 221.786072,534.362427 204.961487,534.262329 
	C202.028183,534.244873 200.382904,535.198120 199.462906,538.055481 
	C196.351898,547.717834 192.661224,557.212769 189.974716,566.986755 
	C187.700455,575.260864 189.272949,584.525269 200.246765,585.872864 
	C201.628723,586.042542 202.941391,586.732605 202.752945,588.413635 
	C202.554321,590.185486 201.000137,590.202271 199.674728,590.207092 
	C187.847473,590.249878 176.020081,590.273499 164.192795,590.257935 
	C162.906738,590.256287 161.331223,590.362366 161.016022,588.578125 
	C160.730972,586.964478 161.760712,586.165039 163.188690,585.741211 
	C170.562759,583.552673 174.428482,577.715515 177.700317,571.436157 
	C184.336548,558.699768 188.658401,544.996643 193.808670,531.653503 
	C205.195633,502.152710 216.197113,472.503113 227.479309,442.541229 
M218.789291,485.179962 
	C213.900101,498.686127 209.010925,512.192322 203.855362,526.434326 
	C221.911636,526.434326 238.845612,526.434326 256.561493,526.434326 
	C247.593964,502.917664 238.894714,480.104523 229.769150,456.173431 
	C225.874130,466.496765 222.484390,475.480927 218.789291,485.179962 
z"/>
<path fill="#0E2F68" opacity="1.000000" stroke="none" 
	d="
M659.028198,500.758911 
	C648.748291,534.690063 630.866577,563.165710 603.509277,585.354309 
	C598.832520,589.147461 593.612671,592.085632 587.334778,592.599670 
	C580.952454,593.122192 577.540527,590.538025 577.778198,584.266418 
	C578.521667,564.647644 579.881165,545.047058 580.326660,525.424133 
	C580.575317,514.470886 582.629089,503.537109 580.958191,492.542847 
	C580.593933,490.146149 580.141357,487.868500 577.545288,486.920349 
	C574.832703,485.929657 573.167297,487.794037 571.475464,489.376984 
	C568.375000,492.277954 566.482849,496.016083 564.577209,499.716339 
	C563.631775,501.552063 562.625183,502.796234 560.324951,501.783295 
	C557.862732,500.698944 558.504639,499.077454 559.325256,497.266632 
	C562.293335,490.716522 565.481812,484.312439 570.751343,479.227753 
	C571.828064,478.188812 572.895813,477.111237 574.106506,476.245605 
	C579.662048,472.273346 585.683167,469.982361 592.340759,473.049164 
	C598.912842,476.076599 600.866394,482.332520 601.194092,488.773499 
	C601.939331,503.423065 600.394836,518.034729 599.753418,532.664429 
	C599.085388,547.902954 597.800537,563.140686 598.251038,578.922485 
	C603.406433,577.090515 607.070679,573.949402 610.324524,570.528259 
	C626.704163,553.306885 638.650940,533.635742 643.091553,509.922729 
	C644.659180,501.551300 643.157104,493.778870 639.174744,486.299957 
	C635.336426,479.091553 636.039978,476.443085 642.077148,473.190125 
	C648.406799,469.779510 654.938721,471.238312 658.170105,476.971893 
	C661.753174,483.329193 660.870300,490.154877 659.883606,496.944061 
	C659.716553,498.093414 659.395874,499.220428 659.028198,500.758911 
z"/>
<path fill="#0E2F68" opacity="1.000000" stroke="none" 
	d="
M416.780884,514.735718 
	C415.619354,528.374268 415.886841,541.391113 421.024658,553.949280 
	C426.455200,567.222778 435.819824,575.808777 450.172974,577.450073 
	C464.831421,579.126221 476.315063,572.855713 485.058990,561.147827 
	C486.357269,559.409546 486.838531,555.272400 490.163544,557.154480 
	C493.640472,559.122559 490.554443,561.885559 489.532074,564.016602 
	C474.907349,594.501770 442.074402,598.901978 419.479675,585.333862 
	C407.032257,577.859253 400.547058,565.836182 397.194305,552.210754 
	C392.835724,534.497620 393.937561,517.008667 402.940308,500.865509 
	C414.654602,479.860138 432.695496,469.903046 457.015808,471.474091 
	C469.334686,472.269867 479.994415,476.232208 488.804535,485.057312 
	C491.198547,487.455353 491.223297,489.149139 489.117889,491.784027 
	C485.904419,495.805725 483.217987,500.245605 480.240723,504.460571 
	C479.220551,505.904907 478.446655,507.739044 476.309631,507.866638 
	C474.937073,507.316376 474.950043,506.092529 474.651001,504.969025 
	C473.668182,501.276459 472.853058,497.510834 471.512268,493.946777 
	C464.354919,474.921234 441.938110,471.157532 428.650818,486.689850 
	C421.837250,494.654602 418.232025,503.999878 416.780884,514.735718 
z"/>
<path fill="#0E2F68" opacity="1.000000" stroke="none" 
	d="
M821.397949,506.569855 
	C829.216980,517.322510 839.868591,524.827576 848.352539,534.447327 
	C853.912659,540.751892 857.922485,547.760864 858.269287,556.251770 
	C858.929626,572.418335 850.372437,585.227051 834.917053,590.068665 
	C818.338989,595.261841 802.378052,592.822327 787.416626,583.957214 
	C784.273865,582.095032 783.156677,579.800903 784.468811,576.058716 
	C786.522400,570.201904 786.986206,563.825317 789.457581,558.216919 
	C793.050781,558.341858 793.305664,560.946106 794.208862,562.702637 
	C797.739197,569.568298 801.733765,576.027771 807.841675,580.975708 
	C814.208435,586.133301 821.421448,587.147949 829.023315,585.001831 
	C839.081360,582.162231 844.089539,571.827271 840.869324,561.517334 
	C838.424255,553.689392 832.745483,548.281738 827.137817,542.810913 
	C821.420288,537.232849 815.234924,532.153259 809.919678,526.140015 
	C800.420837,515.393738 797.401245,503.348724 803.592957,490.162506 
	C809.583618,477.404449 820.746460,472.331268 834.366577,471.616241 
	C844.417175,471.088562 853.892639,472.654358 862.675476,477.851349 
	C866.005066,479.821533 867.469910,481.948975 865.873901,485.959412 
	C864.407471,489.644257 863.703674,493.629211 862.600342,497.463684 
	C862.172302,498.951263 862.620850,501.173340 860.325195,501.382141 
	C858.089539,501.585510 857.911865,499.505402 857.325684,498.001862 
	C854.834778,491.612579 850.654053,486.528290 845.245239,482.405762 
	C842.562561,480.360992 839.625061,478.808685 836.233398,478.369965 
	C822.442139,476.586029 813.523926,487.905457 818.476501,500.949524 
	C819.179382,502.800751 820.273438,504.503448 821.397949,506.569855 
z"/>
<path fill="#0E2F68" opacity="1.000000" stroke="none" 
	d="
M350.357819,565.892822 
	C350.226746,570.047729 350.307434,573.704163 351.492920,577.230530 
	C353.014984,581.757935 355.451599,585.304871 360.765961,585.751526 
	C362.251160,585.876404 364.028198,585.992188 364.021881,588.038757 
	C364.014038,590.578247 361.879272,590.191406 360.326202,590.200134 
	C347.838135,590.270386 335.349609,590.296570 322.861420,590.259949 
	C321.337799,590.255432 319.247467,590.773254 318.910980,588.344910 
	C318.630432,586.320557 320.250397,586.052490 321.733337,585.578430 
	C327.344482,583.784607 329.515564,579.227661 329.557343,573.995239 
	C329.762207,548.354797 329.788361,522.711182 329.600342,497.070709 
	C329.556458,491.084412 326.158875,486.790558 320.438721,484.576202 
	C318.994843,484.017273 316.754669,484.266052 316.987152,481.824921 
	C317.200684,479.582611 319.328705,479.810791 320.837067,479.370148 
	C328.496704,477.132263 336.216827,475.087433 343.815796,472.661774 
	C347.973419,471.334656 349.270782,472.773010 349.207214,476.749664 
	C349.109283,482.872314 349.181427,488.997681 349.181427,495.121918 
	C349.640167,495.247894 350.098877,495.373871 350.557617,495.499878 
	C351.626831,493.444000 352.654694,491.365356 353.771881,489.335846 
	C361.742401,474.856445 375.080688,468.648651 389.065643,472.618286 
	C392.910706,473.709717 393.721375,475.312836 392.137909,479.014008 
	C390.077576,483.829803 388.594788,488.892700 386.882385,493.795044 
	C383.402222,493.483002 381.213379,491.484589 378.646545,490.388641 
	C369.210663,486.359833 361.620575,488.668427 356.537323,497.546967 
	C352.410919,504.754242 350.508972,512.710022 350.401184,520.951294 
	C350.207397,535.768433 350.353790,550.589905 350.357819,565.892822 
z"/>
<path fill="#0E2F68" opacity="1.000000" stroke="none" 
	d="
M538.704834,571.699646 
	C540.798950,568.672241 542.665649,565.919128 544.535706,563.168213 
	C545.437317,561.842041 546.447693,560.783691 548.223511,561.774963 
	C549.932434,562.728943 550.591370,564.057251 549.647888,565.918396 
	C544.364624,576.341064 537.916138,585.875183 526.913574,590.909119 
	C515.694397,596.042236 506.500305,589.929443 506.716400,577.672607 
	C506.923157,565.943604 510.708984,554.804016 513.103394,543.449036 
	C516.632507,526.713196 520.529175,510.054932 524.241821,493.357483 
	C524.492065,492.231934 524.646851,491.051331 524.614380,489.902832 
	C524.497009,485.749969 522.691345,484.720001 519.246704,487.064972 
	C515.355042,489.714325 512.342651,493.291443 509.723785,497.191589 
	C508.888794,498.435242 508.032532,499.664612 507.185699,500.900299 
	C506.257599,502.254547 505.186646,503.204132 503.469269,502.119537 
	C502.015442,501.201385 501.312714,499.874237 502.183838,498.304321 
	C508.514587,486.895630 515.962646,476.491028 529.212036,472.457672 
	C538.372375,469.669067 545.256653,474.891113 545.217468,484.569336 
	C545.174866,495.108612 542.095459,505.211151 539.875854,515.422180 
	C535.959351,533.439697 532.021423,551.452515 528.126038,569.474609 
	C527.547974,572.149292 525.824829,575.498901 528.806396,577.257080 
	C532.307861,579.321777 534.431091,575.747742 536.764648,573.787659 
	C537.397278,573.256287 537.910645,572.582947 538.704834,571.699646 
z"/>
<path fill="#0E2F68" opacity="1.000000" stroke="none" 
	d="
M553.661560,434.700867 
	C556.372437,442.740936 553.596741,449.439972 546.701538,452.303192 
	C539.623291,455.242371 532.222778,452.753784 529.213440,446.422363 
	C526.130188,439.935394 528.583862,432.184357 534.799316,428.777283 
	C541.854248,424.909973 548.654968,426.943298 553.661560,434.700867 
z"/>
</svg>