<svg version="1.1" xmlns="http://www.w3.org/2000/svg" x="0px" y="0px"
	 width="100%" viewBox="0 0 1024 1024" xml:space="preserve">
<path fill="#8ADDFE" opacity="1.000000" stroke="none" 
	d="
M726.064941,640.912659 
	C716.028076,657.353760 703.251221,671.499573 689.627014,685.004578 
	C660.281982,714.092834 625.681519,734.662903 587.100342,748.856750 
	C564.389709,757.211853 540.986755,762.669373 516.800659,763.943787 
	C500.916107,764.780762 484.900452,765.780151 469.082947,764.687805 
	C436.226288,762.418701 404.603790,754.420532 374.445862,740.860229 
	C352.460907,730.974731 332.099335,718.426025 313.364624,703.398926 
	C297.650055,690.794250 283.494629,676.512512 270.773041,660.781616 
	C257.965546,644.944519 246.538345,628.220520 237.277573,610.129639 
	C224.204239,584.591003 214.288773,557.865601 209.044556,529.541138 
	C205.380539,509.751526 202.680466,489.808075 203.163208,469.679718 
	C203.890701,439.347443 208.632355,409.595734 217.888428,380.598877 
	C219.227036,376.405334 221.498276,374.996948 225.374557,375.062042 
	C241.010971,375.324615 256.648560,375.546265 272.282593,375.914062 
	C291.105408,376.356903 309.571045,379.439392 327.846558,383.786682 
	C348.735657,388.755707 369.073883,395.379700 388.773132,403.964447 
	C414.803253,415.308105 439.483673,429.058533 462.100311,446.225037 
	C484.132507,462.947906 504.306793,481.736847 522.993347,502.204376 
	C548.596863,530.248108 575.362061,557.053955 607.300720,578.164307 
	C643.770996,602.269958 683.218201,619.253357 725.803528,629.020752 
	C727.418091,629.390991 729.005554,629.879639 730.792847,630.963440 
	C729.341614,634.713440 727.703308,637.813049 726.064941,640.912659 
M632.678955,655.187622 
	C640.223145,648.593323 647.767395,641.999023 655.799011,634.978638 
	C653.633972,633.815979 652.791016,633.285828 651.889160,632.890137 
	C620.948853,619.314087 592.495056,601.754639 566.360168,580.306213 
	C544.700012,562.530029 525.204346,542.596069 505.821106,522.431213 
	C490.176117,506.155396 474.131836,490.035522 456.705872,475.747620 
	C422.030457,447.316650 382.703186,427.058990 339.617859,414.286255 
	C320.480927,408.613068 300.916321,405.261810 281.121155,402.969025 
	C276.105713,402.388153 273.375153,403.759277 272.479523,408.941681 
	C269.773407,424.599335 265.673553,440.123077 264.358002,455.886047 
	C262.827240,474.227905 263.721466,492.738586 266.964722,511.040070 
	C271.730713,537.934143 280.457764,563.397949 293.559387,587.354553 
	C312.559570,622.096741 339.192200,649.655090 372.438080,670.962769 
	C402.575256,690.278137 435.723663,701.073059 471.209259,703.717468 
	C493.063538,705.346130 515.018616,704.590149 536.744202,700.091370 
	C572.104248,692.769226 603.647827,677.584412 632.678955,655.187622 
z"/>
<path fill="#0E2F68" opacity="1.000000" stroke="none" 
	d="
M726.454468,640.958008 
	C727.703308,637.813049 729.341614,634.713440 731.023071,631.254700 
	C742.940369,632.336853 754.784241,634.182739 766.699585,635.075134 
	C774.467590,635.656982 782.339111,634.840393 790.164795,634.676331 
	C793.298645,634.610596 795.055664,633.341736 796.280151,630.150940 
	C810.968506,591.877136 816.447205,552.317993 813.137878,511.519836 
	C808.431885,453.504974 786.718445,402.542542 748.299805,358.987854 
	C706.969116,312.131683 655.534119,281.980774 593.455139,273.485046 
	C495.916260,260.136597 416.392548,293.809570 354.596771,370.085205 
	C354.182861,370.596130 353.792755,371.126343 353.138947,371.975739 
	C351.350647,371.342346 349.530243,370.688232 347.703217,370.053192 
	C346.030243,369.471710 344.350098,368.910736 341.420990,367.915131 
	C350.642822,357.517914 358.900269,347.306488 368.084930,338.011200 
	C404.711456,300.943542 448.599884,276.585052 499.500122,265.526947 
	C545.018066,255.638199 590.612732,257.014404 634.610046,272.173004 
	C739.996155,308.482117 802.282349,382.790588 821.506775,492.203094 
	C830.304871,542.275757 822.902832,591.399658 804.838501,638.897400 
	C803.322876,642.882568 801.073364,644.369324 796.881470,644.857056 
	C773.289001,647.602539 749.994934,645.816895 726.454468,640.958008 
z"/>
<path fill="#0D2F69" opacity="1.000000" stroke="none" 
	d="
M418.729065,379.750427 
	C449.301697,351.001984 485.270844,333.723328 526.332642,328.530518 
	C595.751282,319.751678 655.134644,340.804504 703.424744,391.781555 
	C733.742920,423.786713 751.973022,461.818878 758.460266,505.400848 
	C763.556641,539.639221 759.763306,573.168518 749.239136,605.964233 
	C746.187073,615.475098 748.309204,616.250732 735.279114,612.087646 
	C736.703674,608.097351 738.209473,604.139404 739.536987,600.122681 
	C775.023560,492.754089 717.621033,384.454102 620.812805,349.267090 
	C546.010498,322.078674 478.759552,337.993652 421.019592,393.003235 
	C416.728790,397.091156 416.836456,397.204163 407.602081,391.011078 
	C411.276245,387.282135 414.871155,383.633636 418.729065,379.750427 
z"/>
</svg>